<svg width="1440" height="645" viewBox="0 0 1440 645" fill="none" xmlns="http://www.w3.org/2000/svg">
<g clip-path="url(#clip0_179669_177493)">
<g opacity="0.8">
<path opacity="0.25" d="M71.6914 604.905C84.3345 603.352 93.3267 591.849 91.776 579.212C90.2253 566.576 78.719 557.591 66.0759 559.145C53.4328 560.698 44.4407 572.201 45.9914 584.837C47.542 597.473 59.0484 606.458 71.6914 604.905Z" fill="#CFDAE6"/>
<path opacity="0.6" d="M6.63668 575.384C9.6649 575.012 11.8187 572.257 11.4473 569.231C11.0758 566.204 8.31989 564.052 5.29167 564.424C2.26345 564.796 0.109685 567.551 0.481099 570.578C0.852513 573.604 3.60846 575.756 6.63668 575.384Z" fill="#CFDAE6"/>
<path opacity="0.45" fill-rule="evenodd" clip-rule="evenodd" d="M49.3593 644.054C55.4157 643.31 59.7233 637.8 58.9805 631.746C58.2376 625.693 52.7257 621.389 46.6693 622.133C40.6128 622.877 36.3053 628.388 37.0481 634.441C37.791 640.494 43.3029 644.798 49.3593 644.054Z" fill="#CFDAE6"/>
<path opacity="0.8" d="M69.7103 582.673L125.271 558.13" stroke="#CFDAE6" stroke-width="1.73913" stroke-linecap="round" stroke-linejoin="round"/>
<path opacity="0.7" d="M45.5908 578.516L7.86719 570.415" stroke="#E0B4B7" stroke-width="0.702679" stroke-linecap="round" stroke-linejoin="round" stroke-dasharray="1.41 2.11"/>
<path opacity="0.8" d="M69.3895 583.087L52.7222 623.339" stroke="#BACAD9" stroke-width="0.702679" stroke-linecap="round" stroke-linejoin="round" stroke-dasharray="1.41 2.11"/>
<g opacity="0.8">
<path opacity="0.45" d="M128.756 562.651C133.673 564.739 139.35 562.447 141.435 557.533C143.52 552.618 141.225 546.942 136.308 544.854C131.39 542.766 125.714 545.057 123.629 549.972C121.543 554.886 123.839 560.563 128.756 562.651Z" fill="#CFDAE6"/>
<path opacity="0.8" fill-rule="evenodd" clip-rule="evenodd" d="M123.628 549.972C121.542 554.887 123.838 560.563 128.755 562.651C133.672 564.739 139.349 562.448 141.434 557.533L123.628 549.972Z" fill="#CFDAE6"/>
</g>
</g>
<path opacity="0.25" d="M138.792 97.0878C155.754 95.6029 168.301 80.6344 166.817 63.6546C165.332 46.6748 150.378 34.1137 133.416 35.5986C116.454 37.0834 103.907 52.0519 105.391 69.0317C106.876 86.0115 121.83 98.5726 138.792 97.0878Z" fill="#CFDAE6"/>
<path opacity="0.3" d="M138.094 89.1176C150.659 88.0177 159.953 76.9299 158.853 64.3523C157.753 51.7747 146.676 42.4701 134.111 43.57C121.547 44.6699 112.253 55.7577 113.353 68.3353C114.452 80.9129 125.53 90.2175 138.094 89.1176Z" fill="#CFDAE6"/>
<path opacity="0.4" d="M306.463 192.568C320.284 191.358 330.507 179.161 329.297 165.326C328.088 151.491 315.903 141.256 302.082 142.466C288.261 143.675 278.037 155.872 279.247 169.707C280.457 183.543 292.642 193.778 306.463 192.568Z" stroke="#CFDAE6"/>
<path opacity="0.5" d="M137.099 77.7302C143.381 77.1802 148.028 71.6363 147.478 65.3475C146.928 59.0587 141.39 54.4064 135.107 54.9564C128.825 55.5063 124.178 61.0502 124.728 67.339C125.278 73.6279 130.817 78.2801 137.099 77.7302Z" fill="#BACAD9"/>
<path fill-rule="evenodd" clip-rule="evenodd" d="M137.099 77.7304L135.108 54.9564C128.825 55.5063 124.178 61.0503 124.728 67.3392C125.278 73.6281 130.817 78.2804 137.099 77.7304Z" fill="#BACAD9"/>
<g opacity="0.45">
<path opacity="0.45" d="M304.869 174.349C308.639 174.019 311.427 170.692 311.097 166.919C310.767 163.146 307.444 160.355 303.675 160.685C299.905 161.015 297.117 164.341 297.447 168.114C297.777 171.887 301.1 174.679 304.869 174.349Z" fill="#E6A1A6"/>
<path opacity="0.45" fill-rule="evenodd" clip-rule="evenodd" d="M304.87 174.349C301.101 174.679 297.777 171.888 297.448 168.114C297.118 164.341 299.906 161.015 303.676 160.685L304.87 174.349Z" fill="#E6A1A6"/>
</g>
<path d="M345.989 166.16C346.932 166.078 347.629 165.246 347.546 164.303C347.464 163.36 346.633 162.662 345.691 162.744C344.748 162.827 344.051 163.658 344.134 164.602C344.216 165.545 345.047 166.243 345.989 166.16Z" fill="#CFDAE6"/>
<path opacity="0.35" d="M308.427 208.461C309.369 208.379 310.066 207.547 309.984 206.604C309.901 205.66 309.07 204.962 308.128 205.045C307.186 205.127 306.489 205.959 306.571 206.902C306.654 207.846 307.484 208.544 308.427 208.461Z" fill="#E0B4B7"/>
<path opacity="0.35" d="M302.322 132.117C303.578 132.007 304.508 130.899 304.398 129.641C304.288 128.383 303.18 127.453 301.923 127.563C300.667 127.673 299.738 128.781 299.848 130.039C299.958 131.297 301.065 132.227 302.322 132.117Z" fill="#E0B4B7"/>
<path opacity="0.8" d="M136.055 67.2305L295.487 162.679" stroke="#CFDAE6"/>
<g opacity="0.8">
<path opacity="0.8" d="M1133.18 37.7392C1139.6 36.4904 1143.79 30.2212 1142.53 23.7366C1141.27 17.252 1135.04 13.0076 1128.62 14.2564C1122.2 15.5052 1118.01 21.7744 1119.27 28.259C1120.53 34.7436 1126.76 38.9881 1133.18 37.7392Z" stroke="#CFDAE6" stroke-width="0.941176"/>
<g opacity="0.8">
<path opacity="0.45" d="M1132.59 34.8985C1137.46 33.9522 1140.63 29.2029 1139.67 24.2904C1138.72 19.378 1134 16.1627 1129.14 17.109C1124.27 18.0552 1121.1 22.8046 1122.06 27.717C1123.01 32.6295 1127.73 35.8447 1132.59 34.8985Z" fill="#BACAD9"/>
<path opacity="0.8" fill-rule="evenodd" clip-rule="evenodd" d="M1132.59 34.8995C1137.46 33.9532 1140.63 29.2037 1139.68 24.2911C1138.72 19.3785 1134 16.1631 1129.14 17.1094L1132.59 34.8995Z" fill="#BACAD9"/>
</g>
<path opacity="0.8" d="M1119.93 20.3706L1085.8 5.38672" stroke="#CFDAE6" stroke-width="0.941176"/>
<path opacity="0.8" d="M1083.62 7.77266C1085.49 7.40842 1086.71 5.5799 1086.35 3.68856C1085.98 1.79721 1084.16 0.55925 1082.29 0.923491C1080.42 1.28773 1079.2 3.11625 1079.56 5.00759C1079.93 6.89894 1081.75 8.1369 1083.62 7.77266Z" stroke="#CFDAE6" stroke-width="0.941176"/>
<path opacity="0.8" d="M1094.73 67.5554C1096.34 67.2432 1097.39 65.6759 1097.07 64.0548C1096.76 62.4336 1095.2 61.3725 1093.59 61.6847C1091.99 61.9969 1090.94 63.5642 1091.26 65.1854C1091.57 66.8065 1093.13 67.8676 1094.73 67.5554Z" fill="#F7E1AD"/>
<path opacity="0.8" d="M1122.83 35.4345L1096.24 62.7152" stroke="#CFDAE6" stroke-width="0.941176"/>
</g>
<g opacity="0.33">
<g opacity="0.33">
<path opacity="0.45" d="M1366.52 447.304C1365.92 440.506 1359.93 435.478 1353.14 436.073C1346.34 436.668 1341.31 442.661 1341.91 449.459C1342.5 456.257 1348.49 461.285 1355.29 460.69C1362.09 460.095 1367.11 454.101 1366.52 447.304Z" fill="#BACAD9"/>
<path opacity="0.33" fill-rule="evenodd" clip-rule="evenodd" d="M1355.29 460.69C1362.09 460.094 1367.11 454.101 1366.52 447.303C1365.93 440.505 1359.93 435.477 1353.14 436.072L1355.29 460.69Z" fill="#BACAD9"/>
</g>
<path opacity="0.33" d="M1415.56 425.222C1418.92 424.629 1421.16 421.425 1420.57 418.065C1419.98 414.705 1416.78 412.461 1413.42 413.054C1410.06 413.647 1407.81 416.851 1408.41 420.211C1409 423.571 1412.2 425.815 1415.56 425.222Z" fill="#CFDAE6"/>
<path opacity="0.33" d="M1353.9 431.235L1352.88 354.834" stroke="#BACAD9" stroke-width="1.16667"/>
<path opacity="0.33" d="M1213.06 400.719L1338.81 443.392" stroke="#BACAD9" stroke-width="1.16667"/>
<path opacity="0.33" d="M1360.12 464.007L1412.93 574.348L1255.21 511.774L1340.09 457.357" stroke="#CFDAE6" stroke-width="1.16667"/>
<path opacity="0.6" d="M1372.95 439.634L1408.12 422.143" stroke="#E0B4B7" stroke-width="1.16667"/>
<path opacity="0.33" d="M1417.15 412.901L1443.51 358.812" stroke="#BACAD9" stroke-width="1.16667"/>
<path opacity="0.33" d="M1490.37 453.857L1420.5 421.217" stroke="#CFDAE6" stroke-width="1.16667"/>
<path opacity="0.33" d="M1354.79 354.387C1359.83 353.498 1363.19 348.691 1362.3 343.651C1361.41 338.611 1356.61 335.246 1351.57 336.134C1346.53 337.023 1343.17 341.83 1344.05 346.87C1344.94 351.91 1349.75 355.276 1354.79 354.387Z" fill="#C1D1E0"/>
<path opacity="0.33" d="M1257.02 518.431C1260.04 517.897 1262.06 515.013 1261.53 511.989C1260.99 508.965 1258.11 506.946 1255.09 507.48C1252.06 508.013 1250.05 510.897 1250.58 513.921C1251.11 516.945 1253.99 518.964 1257.02 518.431Z" fill="#C1D1E0"/>
<path opacity="0.33" d="M1204.8 407.19C1209.84 406.301 1213.2 401.495 1212.31 396.455C1211.42 391.414 1206.62 388.049 1201.58 388.938C1196.54 389.827 1193.18 394.634 1194.07 399.674C1194.95 404.714 1199.76 408.079 1204.8 407.19Z" fill="#D1DEED" fill-opacity="0.6"/>
<path opacity="0.33" d="M1414.79 580.941C1417.81 580.407 1419.83 577.523 1419.3 574.499C1418.77 571.475 1415.88 569.456 1412.86 569.989C1409.84 570.523 1407.82 573.407 1408.35 576.431C1408.88 579.455 1411.77 581.474 1414.79 580.941Z" fill="#E0B4B7"/>
</g>
</g>
<defs>
<clipPath id="clip0_179669_177493">
<rect width="1441" height="645" fill="white"/>
</clipPath>
</defs>
</svg>
