<svg width="47" height="47" viewBox="0 0 47 47" fill="none" xmlns="http://www.w3.org/2000/svg">
<g clip-path="url(#clip0_179669_177547)">
<path d="M21.3067 1.46006L1.13559 21.5474C0.0511576 22.6273 0.0511576 24.3716 1.13559 25.4515L21.3067 45.5389C22.3911 46.6188 24.1427 46.6188 25.2271 45.5389L33.6846 37.1165C34.6557 36.1494 34.6557 34.5813 33.6846 33.6141C32.7134 32.647 31.1388 32.647 30.1676 33.6141L23.756 39.9991C23.4861 40.2678 23.0765 40.2678 22.8066 39.9991L6.6985 23.9579C6.42859 23.6891 6.42859 23.2811 6.6985 23.0123L22.8066 6.97117C23.0765 6.70238 23.4861 6.70238 23.756 6.97117L30.1676 13.3561C31.1388 14.3232 32.7134 14.3232 33.6846 13.3561C34.6557 12.3889 34.6557 10.8209 33.6846 9.8537L25.228 1.43228C24.1391 0.375723 22.387 0.384276 21.3067 1.46006Z" fill="url(#paint0_linear_179669_177547)"/>
<path d="M21.3067 1.46006L1.13559 21.5474C0.0511576 22.6273 0.0511576 24.3716 1.13559 25.4515L21.3067 45.5389C22.3911 46.6188 24.1427 46.6188 25.2271 45.5389L33.6846 37.1165C34.6557 36.1494 34.6557 34.5813 33.6846 33.6141C32.7134 32.647 31.1388 32.647 30.1676 33.6141L23.756 39.9991C23.4861 40.2678 23.0765 40.2678 22.8066 39.9991L6.6985 23.9579C6.42859 23.6891 6.42859 23.2811 6.6985 23.0123L22.8066 6.97117C23.4786 6.39371 24.5752 5.22408 26.1855 4.95052C27.3823 4.74722 28.6906 5.19468 30.1106 6.29292C29.1613 5.3475 27.5337 3.72729 25.228 1.43228C24.1391 0.375723 22.387 0.384276 21.3067 1.46006Z" fill="url(#paint1_linear_179669_177547)"/>
<path d="M35.6376 31.7461C36.6088 32.7133 38.1834 32.7133 39.1546 31.7461L45.3932 25.5334C46.4776 24.4535 46.4776 22.7092 45.3933 21.6294L39.1003 15.3847C38.1268 14.4187 36.5517 14.4201 35.58 15.3878C34.6088 16.355 34.6088 17.9231 35.58 18.8902L39.8303 23.1229C40.1002 23.3917 40.1002 23.7997 39.8303 24.0684L35.6376 28.2437C34.6664 29.2109 34.6664 30.779 35.6376 31.7461Z" fill="url(#paint2_linear_179669_177547)"/>
<path d="M23.3681 29.0239C26.3759 29.0239 28.8143 26.5957 28.8143 23.6003C28.8143 20.605 26.3759 18.1768 23.3681 18.1768C20.3602 18.1768 17.9219 20.605 17.9219 23.6003C17.9219 26.5957 20.3602 29.0239 23.3681 29.0239Z" fill="url(#paint3_linear_179669_177547)"/>
</g>
<defs>
<linearGradient id="paint0_linear_179669_177547" x1="21.4934" y1="0.646486" x2="40.627" y2="12.3701" gradientUnits="userSpaceOnUse">
<stop stop-color="#4285EB"/>
<stop offset="1" stop-color="#2EC7FF"/>
</linearGradient>
<linearGradient id="paint1_linear_179669_177547" x1="24.0644" y1="0.646484" x2="14.6577" y2="49.4253" gradientUnits="userSpaceOnUse">
<stop stop-color="#29CDFF"/>
<stop offset="0.378601" stop-color="#148EFF"/>
<stop offset="1" stop-color="#0A60FF"/>
</linearGradient>
<linearGradient id="paint2_linear_179669_177547" x1="42.7649" y1="12.3504" x2="30.5047" y2="31.5886" gradientUnits="userSpaceOnUse">
<stop stop-color="#FA816E"/>
<stop offset="0.414726" stop-color="#F74A5C"/>
<stop offset="1" stop-color="#F51D2C"/>
</linearGradient>
<linearGradient id="paint3_linear_179669_177547" x1="25.3426" y1="14.3053" x2="21.2696" y2="30.6528" gradientUnits="userSpaceOnUse">
<stop stop-color="#FA8E7D"/>
<stop offset="0.512635" stop-color="#F74A5C"/>
<stop offset="1" stop-color="#F51D2C"/>
</linearGradient>
<clipPath id="clip0_179669_177547">
<rect width="46.1538" height="46" fill="white" transform="translate(0.171875 0.5)"/>
</clipPath>
</defs>
</svg>
